<svg width="31" height="31" viewBox="0 0 31 31" fill="none" xmlns="http://www.w3.org/2000/svg">
<path d="M16 17.115L18.115 15L10.69 7.57499L8.575 9.68999L16 17.115ZM26.605 4.39499C25.2159 2.99734 23.5633 1.88921 21.7429 1.13479C19.9225 0.380372 17.9705 -0.00534237 16 -6.4206e-06H14.5V5.99999H17.5V3.08999C20.1901 3.43 22.6858 4.67109 24.5804 6.61101C26.4749 8.55092 27.6566 11.0753 27.9328 13.7727C28.2091 16.4702 27.5636 19.1817 26.1016 21.4653C24.6396 23.749 22.4473 25.4702 19.8819 26.3484C17.3165 27.2267 14.5293 27.2102 11.9745 26.3016C9.41971 25.3931 7.24791 23.6461 5.81305 21.3453C4.37819 19.0445 3.76486 16.3255 4.07302 13.6315C4.38117 10.9376 5.59264 8.42735 7.51 6.50999L8.575 5.45999L6.46 3.32999L5.395 4.39499C3.96234 5.7787 2.81961 7.43387 2.03348 9.26393C1.24734 11.094 0.833547 13.0623 0.81624 15.054C0.798933 17.0457 1.17846 19.0209 1.93267 20.8643C2.68689 22.7077 3.80068 24.3825 5.20907 25.7909C6.61746 27.1993 8.29224 28.3131 10.1357 29.0673C11.9791 29.8215 13.9543 30.2011 15.946 30.1838C17.9377 30.1664 19.906 29.7526 21.7361 28.9665C23.5661 28.1804 25.2213 27.0376 26.605 25.605C29.4171 22.7921 30.9968 18.9775 30.9968 15C30.9968 11.0225 29.4171 7.20791 26.605 4.39499Z" fill="white"/>
</svg>
