<svg width="32" height="32" viewBox="0 0 32 32" fill="none" xmlns="http://www.w3.org/2000/svg">
<path d="M16 31C15.5823 30.9964 15.17 30.9055 14.7894 30.7333C14.4089 30.5611 14.0685 30.3114 13.79 30C10.14 26 4 18.39 4 13.36C3.95457 10.1303 5.19279 7.01466 7.44274 4.69722C9.69268 2.37977 12.7704 1.05002 16 1C19.2296 1.05002 22.3073 2.37977 24.5573 4.69722C26.8072 7.01466 28.0454 10.1303 28 13.36C28 18.36 21.86 25.95 18.21 30.01C17.9307 30.3195 17.5898 30.5674 17.2093 30.7379C16.8288 30.9084 16.4169 30.9976 16 31ZM16 3C13.3017 3.05258 10.7342 4.17241 8.85985 6.11421C6.98552 8.05602 5.95716 10.6615 6 13.36C6 16.5 9.47 22.22 15.28 28.67C15.3733 28.7668 15.4851 28.8438 15.6088 28.8963C15.7325 28.9489 15.8656 28.976 16 28.976C16.1344 28.976 16.2675 28.9489 16.3912 28.8963C16.5149 28.8438 16.6267 28.7668 16.72 28.67C22.53 22.22 26 16.5 26 13.36C26.0428 10.6615 25.0145 8.05602 23.1402 6.11421C21.2658 4.17241 18.6983 3.05258 16 3Z" fill="#FA5B0F"/>
<path d="M16 19C14.8133 19 13.6533 18.6481 12.6666 17.9888C11.6799 17.3295 10.9109 16.3925 10.4567 15.2961C10.0026 14.1997 9.88378 12.9933 10.1153 11.8295C10.3468 10.6656 10.9182 9.59648 11.7574 8.75736C12.5965 7.91825 13.6656 7.3468 14.8295 7.11529C15.9933 6.88378 17.1997 7.0026 18.2961 7.45673C19.3925 7.91085 20.3295 8.67989 20.9888 9.66658C21.6481 10.6533 22 11.8133 22 13C22 14.5913 21.3679 16.1174 20.2426 17.2426C19.1174 18.3679 17.5913 19 16 19ZM16 9C15.2089 9 14.4355 9.2346 13.7777 9.67412C13.1199 10.1137 12.6072 10.7384 12.3045 11.4693C12.0017 12.2002 11.9225 13.0044 12.0769 13.7804C12.2312 14.5563 12.6122 15.269 13.1716 15.8284C13.731 16.3878 14.4437 16.7688 15.2196 16.9231C15.9956 17.0775 16.7998 16.9983 17.5307 16.6955C18.2616 16.3928 18.8864 15.8801 19.3259 15.2223C19.7654 14.5645 20 13.7911 20 13C20 11.9391 19.5786 10.9217 18.8284 10.1716C18.0783 9.42143 17.0609 9 16 9Z" fill="#FA5B0F"/>
</svg>
